# xmcd CD database file
#
# Track frame offsets:
#	150
#	31945
#	61795
#	94250
#	125132
#	146145
#	177460
#	208840
#	236052
#	264475
#
# Disc length: 3941 seconds
#
# Revision: 0
# Processed by: cddbd v1.5.2PL0 Copyright (c) Steve Scherf et al.
# Submitted via: CDex 1.51
#
DISCID=980f630a
DTITLE=Sofia Pettersson - kvintett
DYEAR=1998
DGENRE=Jazz
TTITLE0=I didn´t belive
TTITLE1=he´s sorry
TTITLE2=i`ll be quiet
TTITLE3=oasis
TTITLE4=lullaby blues
TTITLE5=hide it all
TTITLE6=the carpenter
TTITLE7=en gång till
TTITLE8=fields
TTITLE9=stay
EXTD=YEAR: 1998
EXTT0=
EXTT1=
EXTT2=
EXTT3=
EXTT4=
EXTT5=
EXTT6=
EXTT7=
EXTT8=
EXTT9=
PLAYORDER=
